# xmcd
#
# Track frame offsets: 
#        150
#        19425
#        32325
#        47325
#        60862
#        83250
#        100575
#        118425
#        136950
#        153150
#        167100
#        179625
#
# Disc length: 2626 seconds
#
# Revision: 0
# Processed by: cddbd v1.4PL0 Copyright (c) Steve Scherf et al.
# Submitted via: ExactAudioCopy v0.90b4
#
DISCID=8a0a400c
DTITLE=Toni Lynn Washington - Good Things
DYEAR=2000
DGENRE=Blues
TTITLE0=Good Things Come to Those Who Wait
TTITLE1=Meet Me in the Middle
TTITLE2=Satisfaction
TTITLE3=Looking at the Future
TTITLE4=Oh, What a Dream
TTITLE5=Don't Forget Me
TTITLE6=The Hammer
TTITLE7=I Don't Know Why
TTITLE8=I've Had Enough
TTITLE9=Allright, Okay, You Win
TTITLE10=We Don't See Eye to Eye
TTITLE11=You're Gonna Make Me Cry
EXTD=
EXTT0=
EXTT1=
EXTT2=
EXTT3=
EXTT4=
EXTT5=
EXTT6=
EXTT7=
EXTT8=
EXTT9=
EXTT10=
EXTT11=
PLAYORDER=
